<svg id="Layer_1" data-name="Layer 1" xmlns="http://www.w3.org/2000/svg" viewBox="0 0 392.02 325.21"><defs><style>.cls-1{fill:#ed1c24;stroke-width:0.5px;}.cls-1,.cls-3{stroke:#231f20;stroke-miterlimit:10;}.cls-2,.cls-3{fill:#fff;}.cls-3{stroke-width:15px;}</style></defs><path class="cls-1" d="M363.22,68.26a97.7,97.7,0,0,1,4.1,140.86l-32.81,33.4L207.86,371.46,73.61,249.82,36.14,215.87A98.44,98.44,0,0,1,32,73.94h0a81.47,81.47,0,0,1,112.82-3.28l55.43,50.23,48.42-49.3a82.71,82.71,0,0,1,114.54-3.33Z" transform="translate(-3.55 -46.59)"/><path class="cls-2" d="M316.89,121.91a88.22,88.22,0,0,1,3.7,119.71l-24.76,28.51-88,101.33-92-93.54L79.69,241.13a79.37,79.37,0,0,1-3.33-107.7h0a56.25,56.25,0,0,1,82.57-2.55l44.94,45.71L249.56,124a45.86,45.86,0,0,1,67.33-2.07Z" transform="translate(-3.55 -46.59)"/><path class="cls-3" d="M26,254.11h119.1a.11.11,0,0,0,.1-.08l23.19-62.75a.12.12,0,0,1,.2,0l32.65,39.45a.11.11,0,0,0,.18,0l45.83-73.5a.11.11,0,0,1,.21,0L265.7,273a.11.11,0,0,0,.21,0l17.62-33.09a.11.11,0,0,1,.1-.06H390.41" transform="translate(-3.55 -46.59)"/></svg>