
<!--
	Created by Wareed Islam (https://deerawtcg.wixsite.com/portfolio) and licensed
	to Sayan Ghosh (https://sayn.work)
-->

<svg data-name="Layer 1" version="1.1" viewBox="0 0 564.46 557.24" xmlns="http://www.w3.org/2000/svg">
 <defs>
  <style>.cls-1{fill:#d94e41;}.cls-2,.cls-4{fill:#f2bb9b;}.cls-2,.cls-3{stroke:#000;stroke-miterlimit:10;}.cls-3{fill:#730202;}</style>
 </defs>
 <title>CoroLogo</title>
 <g stroke-width=".85797">
  <path class="cls-1" d="m477.73 282.1c-19.047 8.5797-49.513 21.449-59.371 20.299-9.0773-1.0381-22.607-5.4395-31.633-8.6569a113.19 113.19 0 0 0 2.0334-21.449c0-3.2603-0.13727-6.4948-0.41182-9.6864a36.755 36.755 0 0 1 6.7608-0.85797c2.4452 0.0429 9.4376 4.1697 13.83 6.8637-5.4395-4.6759-6.2803-11.917-6.2803-11.917s-1.4328-7.1554 2.3079-13.281c-3.3203 3.9295-8.7341 10.012-11.042 10.802a36.386 36.386 0 0 1-6.409 1.2612 111.48 111.48 0 0 0-9.3004-30.887c7.5758-5.8599 19.605-14.671 28.219-18.584 9.0344-4.1097 41.972-1.2784 62.735 1.0467-28.124-7.6273-43.885-32.714-43.885-32.714s-17.743-23.731-14.74-52.722c-5.3022 20.214-14.508 51.967-21.586 58.917-6.5206 6.409-18.463 14.148-26.648 19.15a113.5 113.5 0 0 0-23.165-20.866 35.777 35.777 0 0 1 3.5949-5.7741c1.5787-1.8704 9.1974-4.736 14.062-6.4176-7.0611 1.287-13.23-2.6168-13.23-2.6168s-6.4519-3.4319-8.8628-10.158c0.9695 5.0534 2.2908 13.093 1.45 15.383a35.683 35.683 0 0 1-3.0544 5.7655 112.14 112.14 0 0 0-35.649-13.496c-0.28313-9.5749-0.34318-24.486 1.5529-33.752 1.9905-9.7208 23.646-34.713 37.751-50.148-22.702 18.283-52.267 16.301-52.267 16.301s-29.626 0.40324-51.306-19.064c13.23 16.173 33.512 42.281 34.971 52.096 1.347 9.043 0.59199 23.259-0.18018 32.817a111.96 111.96 0 0 0-30.492 6.4433 36.035 36.035 0 0 1-2.5739-6.2889c-0.592-2.3766 1.5701-10.227 3.0629-15.143-3.1058 6.4691-9.8838 9.1545-9.8838 9.1545s-6.5463 3.2345-13.427 1.2012c4.6502 2.1964 11.934 5.8513 13.298 7.8761a35.649 35.649 0 0 1 2.8656 5.8428 112.77 112.77 0 0 0-27.455 17.013c-7.6102-5.7913-19.261-15.143-25.276-22.453-6.3061-7.6616-12.089-40.221-15.229-60.873-0.0772 29.171-20.239 50.86-20.239 50.86s-18.275 23.251-47.051 27.884c20.891-0.10296 53.949 0.56626 62.494 5.6025 7.8761 4.6416 18.446 14.174 25.387 20.789a112.29 112.29 0 0 0-14.174 27.764 36.678 36.678 0 0 1-6.4948-1.9819c-2.2136-1.0381-6.9495-7.6616-9.8323-11.917 3.0715 6.4862 0.85796 13.444 0.85796 13.444s-1.6044 7.1211-7.5158 11.196c4.633-2.2393 12.054-5.5939 14.482-5.3794a35.786 35.786 0 0 1 6.349 1.45 112.75 112.75 0 0 0-4.0496 30.029v1.9562c-9.3004 2.2736-23.894 5.4309-33.366 5.5081-9.9181 0.0772-38.866-15.907-56.883-26.468 22.642 18.429 26.837 47.78 26.837 47.78s6.5634 28.896-7.9791 54.155c13.067-16.301 34.387-41.568 43.688-45.043 8.5797-3.1916 22.599-5.4052 32.105-6.6407a112.08 112.08 0 0 0 12.689 28.476 37.184 37.184 0 0 1-5.6368 3.8008c-2.1964 1.0724-10.296 0.58341-15.443 0.14585 6.9753 1.7159 11.016 7.7732 11.016 7.7732s4.5215 5.7312 3.9638 12.87c1.1754-5.002 3.2345-12.87 4.9333-14.637a34.979 34.979 0 0 1 5.1478-4.0239 113.82 113.82 0 0 0 22.307 23.294c-4.0839 8.6569-10.81 21.99-16.705 29.394-6.1859 7.7217-36.824 20.188-56.377 27.549 28.519-6.0058 53.958 9.2231 53.958 9.2231s26.597 13.084 37.064 40.273c-4.4528-20.411-10.665-52.885-7.5158-62.297 2.8999-8.6483 10.012-20.952 15.049-29.119a112.22 112.22 0 0 0 30.097 8.0306 36.146 36.146 0 0 1-0.58341 6.7779c-0.5491 2.3852-6.0058 8.3909-9.6092 12.106 5.7055-4.3585 12.972-3.6721 12.972-3.6721s7.2927 0.0858 12.509 5.0191c-3.1573-4.0668-7.9791-10.622-8.2708-13.05a34.439 34.439 0 0 1 0.11154-6.5377c2.2393 0.13728 4.5043 0.20591 6.7779 0.20591a112.97 112.97 0 0 0 25.379-2.8656c4.1611 8.6226 10.296 22.23 12.312 31.462 2.1449 9.695-7.4815 41.328-14.062 61.156 13.298-25.919 41.148-36.12 41.148-36.12s26.897-12.423 54.627-3.4319c-18.661-9.3862-47.814-24.993-53.142-33.366-4.9076-7.7217-9.9867-20.977-13.17-30.029a113.05 113.05 0 0 0 25.207-18.335 37.004 37.004 0 0 1 4.899 4.736c1.5014 1.9218 2.7198 9.9782 3.3546 15.083 0.20591-7.1726 5.3108-12.389 5.3108-12.389s4.6588-5.6111 11.78-6.5634c-5.1478-0.10296-13.281-0.48046-15.349-1.776a36.12 36.12 0 0 1-5.0191-4.1955 112.5 112.5 0 0 0 18.172-26.683c9.3175 2.205 23.749 6.0058 32.208 10.236 8.8714 4.4357 27.403 31.822 38.669 49.419-11.78-26.657-2.1964-54.695-2.1964-54.695s7.2498-28.75 31.668-44.657zm-120.29 12.08a62.203 62.203 0 0 1-124.41 0v-0.42898-0.42899a62.203 62.203 0 0 1 124.41 0v0.42899 0.42898z"/>
  <path class="cls-1" d="m357.44 293.75v0.42898a62.203 62.203 0 0 1-124.41 0v-0.42898-0.42899a62.203 62.203 0 0 1 124.41 0c9e-3 0.14586 9e-3 0.28313 0 0.42899z"/>
  <path class="cls-1" d="m348.78 64.744s-5.0963 5.2851-12.012 12.869a61.842 61.842 0 0 0 12.012-12.869z"/>
  <path class="cls-1" d="m233.18 74.851c-6.5206-7.9619-11.325-13.522-11.325-13.522a61.937 61.937 0 0 0 11.325 13.522z"/>
  <path class="cls-2" d="m353.7 42.797c7.2841 6.8123-3.4319 22.71-9.4891 29.034-16.19 16.996-39.466 23.749-60.607 23.165-21.14-0.58342-44.099-8.6655-59.277-26.408-5.9457-6.9581-15.392-23.165-7.9104-29.497 5.9543-5.0706 18.875-0.41182 27.086 1.51 13.805 3.2345 27.661 6.0058 41.388 6.3661 13.727 0.36035 27.695-1.6473 41.68-4.1354 8.3137-1.4585 21.32-5.4652 27.129-0.03432z"/>
  <path class="cls-3" d="m312.03 55.375c4.8818 5.3709-20.402 18.12-27.995 17.957-5.8599-0.12012-32.011-13.436-26.28-18.592 3.612-3.2517 18.729 2.2736 27.043 2.3766 8.3137 0.10296 24.323-4.9505 27.232-1.7417z"/>
  <path class="cls-1" d="m160.48 85.069s0.90087 7.2927 2.4452 17.468a61.997 61.997 0 0 0-2.4452-17.468z"/>
  <path class="cls-1" d="m95.579 181.27c-10.296 0.0515-17.631 0.29171-17.631 0.29171a61.774 61.774 0 0 0 17.631-0.29171z"/>
  <path class="cls-2" d="m146.52 67.446c9.8752-1.3813 15.443 16.979 16.584 25.645 3.02 23.277-6.3918 45.635-20.119 61.679-13.727 16.044-34.482 28.828-57.818 29.454-9.1545 0.24023-27.669-2.5739-27.91-12.415-0.18875-7.8161 11.548-14.92 18.215-20.094 11.205-8.6998 22.067-17.734 30.998-28.167 8.9314-10.433 16.147-22.556 23.019-34.988 4.0839-7.3957 9.1545-20.025 17.031-21.115z"/>
  <path class="cls-3" d="m130.07 107.74c7.2412-0.41182 1.244 27.266-3.6635 33.057-3.7836 4.4786-30.587 16.421-30.99 8.7255-0.24881-4.8475 13.556-13.118 18.875-19.519 5.3194-6.4004 11.454-21.998 15.778-22.264z"/>
  <path class="cls-1" d="m57.768 244.2s6.2374 3.8866 15.117 9.0944a61.98 61.98 0 0 0-15.117-9.0944z"/>
  <path class="cls-1" d="m91.692 355.18c-6.4347 8.0306-10.87 13.89-10.87 13.89a61.774 61.774 0 0 0 10.87-13.89z"/>
  <path class="cls-2" d="m35.281 243.96c5.1478-8.5797 22.933-1.3298 30.372 3.2431 19.991 12.303 31.444 33.692 35.271 54.464 3.8265 20.771 0.70353 44.94-13.496 63.49-5.5682 7.267-19.433 19.871-27.206 13.882-6.2031-4.7789-4.2898-18.369-4.1611-26.811 0.29171-14.174 0.11154-28.313-2.3766-41.809-2.4881-13.496-7.3699-26.751-12.706-39.913-3.1745-7.8504-9.798-19.733-5.6969-26.545z"/>
  <path class="cls-3" d="m56.25 282.1c4.2384-5.8856 21.964 16.198 23.388 23.654 1.0982 5.757-6.4948 34.104-12.724 29.574-3.9295-2.857-1.6645-18.789-3.3032-26.94-1.6387-8.1507-9.8924-22.788-7.3614-26.288z"/>
  <path class="cls-1" d="m116.79 424.17s6.941-2.4023 16.576-6.0058a61.774 61.774 0 0 0-16.576 6.0058z"/>
  <path class="cls-1" d="m224.4 467.64c2.1878 10.064 3.9552 17.159 3.9552 17.159a62.357 62.357 0 0 0-3.9552-17.159z"/>
  <path class="cls-2" d="m102.47 441.49c-3.4319-9.3776 13.393-18.661 21.629-21.561 22.144-7.7903 45.97-3.226 64.528 6.8637 18.558 10.09 35.365 27.729 40.822 50.431 2.1449 8.8971 3.2174 27.601-6.3404 29.874-7.6016 1.8103-16.988-8.1936-23.44-13.642-10.81-9.1459-21.964-17.897-33.975-24.461-12.012-6.5634-25.413-11.154-39.003-15.237-8.1078-2.4538-21.509-4.796-24.22-12.269z"/>
  <path class="cls-3" d="m145.3 449.21c-1.9133-7.001 26.408-6.8637 33.1-3.2946 5.1478 2.7712 22.419 26.503 14.98 28.502-4.6931 1.2526-15.658-10.527-23.019-14.397s-23.92-6.6321-25.061-10.81z"/>
  <path class="cls-1" d="m293.81 491.51s2.5138-6.8637 5.757-16.67a62.022 62.022 0 0 0-5.757 16.67z"/>
  <path class="cls-1" d="m395.32 435.29c9.1974 4.6244 15.847 7.7217 15.847 7.7217a62.031 62.031 0 0 0-15.847-7.7217z"/>
  <path class="cls-2" d="m298.26 513.59c-9.4376-3.2517-6.0744-22.153-3.1402-30.381 7.8761-22.11 26.417-37.751 45.936-45.824 19.519-8.0735 43.808-10.03 64.888 0 8.2622 3.9381 23.474 14.877 19.227 23.731-3.3804 7.0525-17.056 8.0477-25.353 9.635-13.925 2.6683-27.712 5.7827-40.402 11.025-12.689 5.2422-24.632 12.767-36.395 20.728-6.9924 4.7446-17.245 13.685-24.761 11.085z"/>
  <path class="cls-3" d="m331.2 485.16c-6.6407-2.9171 11.274-24.881 18.275-27.798 5.4052-2.265 34.705-0.73785 31.573 6.2975-1.9819 4.4357-18.017 5.5425-25.67 8.8285-7.6531 3.286-20.214 14.422-24.177 12.672z"/>
  <path class="cls-1" d="m457.57 396.39s-3.7836-6.2975-9.3347-14.963a62.228 62.228 0 0 0 9.3347 14.963z"/>
  <path class="cls-1" d="m477.73 282.1c9.3776-4.2298 15.984-7.4386 15.984-7.4386a61.885 61.885 0 0 0-15.984 7.4386z"/>
  <path class="cls-2" d="m477.5 406.81c-8.4681 5.2765-21.037-9.2231-25.585-16.679-12.226-20.034-12.715-44.288-6.7093-64.536 6.0058-20.248 19.776-40.324 40.848-50.423 8.2536-3.9466 26.331-8.88 30.544 0 3.3461 7.0696-4.4872 18.326-8.4681 25.739-6.7007 12.501-12.955 25.173-16.859 38.334-3.9038 13.161-5.5854 27.172-6.8037 41.328-0.72069 8.4338-0.22307 22.033-6.9667 26.237z"/>
  <path class="cls-3" d="m476.14 363.31c-6.4519 3.3289-12.226-24.401-10.107-31.693 1.6387-5.6283 21.269-27.455 24.77-20.591 2.1964 4.3327-7.0439 17.503-9.2918 25.507-2.2479 8.0048-1.5186 24.795-5.3709 26.777z"/>
  <path class="cls-1" d="m486.67 209.24s-7.267-1.0124-17.503-2.1535a62.16 62.16 0 0 0 17.503 2.1535z"/>
  <path class="cls-1" d="m410.55 121.64c2.6168-9.9524 4.2898-17.108 4.2898-17.108a62.082 62.082 0 0 0-4.2898 17.108z"/>
  <path class="cls-2" d="m507.32 200.31c-1.2269 9.8924-20.411 10.544-29.059 9.3862-23.268-3.1144-42.426-18.017-54.378-35.408-11.951-17.391-18.875-40.762-13.487-63.49 2.1363-8.8971 9.6779-26.048 19.218-23.74 7.6016 1.8446 11.42 15.014 14.697 22.796 5.4996 13.075 11.411 25.911 19.184 37.227 7.7732 11.317 17.605 21.449 27.841 31.299 6.083 5.8685 16.962 14.036 15.984 21.93z"/>
  <path class="cls-3" d="m472.66 173.99c-1.4757 7.1126-26.657-5.8513-30.99-12.089-3.3461-4.8132-7.9362-33.795-0.40324-32.191 4.7446 1.0124 9.1631 16.482 13.968 23.268 4.8046 6.7865 18.309 16.799 17.425 21.012z"/>
  <path class="cls-1" d="m239.31 140.61s-0.57484 1.7159-1.3127 4.144a15.032 15.032 0 0 0 1.3127-4.144z"/>
  <path class="cls-1" d="m214.69 155.13c-2.2908-1.081-3.9466-1.8017-3.9466-1.8017a15.126 15.126 0 0 0 3.9466 1.8017z"/>
  <path class="cls-2" d="m237.91 135.71c2.9171 1.0639 1.347 13.247-9.9953 18.283-11.342 5.0363-21.449-1.9562-20.274-4.8304 1.1754-2.8742 8.8199-2.3594 15.718-5.4309s11.643-9.0773 14.551-8.022z"/>
  <path class="cls-3" d="m229.94 142.88c0.97808 0.35176 0 4.4014-4.2126 6.2975-4.2126 1.8961-7.7217 0-7.2756-0.97808 0.44615-0.97808 3.2517-1.0124 5.9286-2.2564 2.6769-1.244 4.5901-3.4147 5.5596-3.0629z"/>
  <path class="cls-1" d="m150.56 217.91s0.97808 1.5186 2.4023 3.6206a15.169 15.169 0 0 0-2.4023-3.6206z"/>
  <path class="cls-1" d="m146.34 246.13c-2.2822 1.0982-3.8866 1.9304-3.8866 1.9304a15.092 15.092 0 0 0 3.8866-1.9304z"/>
  <path class="cls-2" d="m145.86 215.9c2.6597-1.6044 11.154 7.2841 7.9105 19.27-3.2431 11.986-15.006 15.443-16.507 12.715-1.5014-2.7283 3.7064-8.3394 5.6712-15.624 1.9647-7.2841 0.26597-14.766 2.9257-16.361z"/>
  <path class="cls-3" d="m146.41 226.6c0.85797-0.54052 3.4319 2.7798 2.2479 7.2327-1.184 4.4528-4.8732 6.0058-5.3451 5.0363-0.47188-0.96951 1.2612-3.1573 1.9819-6.0058 0.72069-2.8484 0.23165-5.7312 1.1154-6.2632z"/>
  <path class="cls-1" d="m154.76 335.51s1.7932 0.19733 4.2898 0.41182a15.315 15.315 0 0 0-4.2898-0.41182z"/>
  <path class="cls-1" d="m174.07 356.57c-0.57483 2.4709-0.94376 4.2469-0.94376 4.2469a15.135 15.135 0 0 0 0.94376-4.2469z"/>
  <path class="cls-2" d="m150.25 337.94c0.42899-3.0715 12.672-4.0668 19.965 6.0058 7.2927 10.073 2.5739 21.372-0.51478 20.831s-4.144-8.1335-8.5797-14.242-11.317-9.5578-10.87-12.595z"/>
  <path class="cls-3" d="m158.91 344.2c0.13728-1.021 4.2898-0.85797 7.0439 2.8056s1.5701 7.5501 0.5491 7.327-1.6645-2.9686-3.4319-5.328-4.2984-3.7836-4.1611-4.8046z"/>
  <path class="cls-1" d="m248.79 406.25s1.2955-1.2612 3.0458-3.0887a15.315 15.315 0 0 0-3.0458 3.0887z"/>
  <path class="cls-1" d="m277.32 404.51c1.5529 2.0076 2.7026 3.4319 2.7026 3.4319a15.306 15.306 0 0 0-2.7026-3.4319z"/>
  <path class="cls-2" d="m247.82 411.28c-2.1192-2.2736 4.8132-12.415 17.211-11.754 12.398 0.66064 18.206 11.48 15.864 13.513-2.3422 2.0334-8.9314-1.8961-16.464-2.2994-7.533-0.40324-14.5 2.8056-16.61 0.54052z"/>
  <path class="cls-3" d="m258.16 408.51c-0.70353-0.75501 2.0162-3.9209 6.6149-3.7064 4.5987 0.21449 6.8637 3.5262 6.0058 4.1783-0.85796 0.65206-3.3461-0.57483-6.2975-0.67779-2.9514-0.10296-5.6197 0.95234-6.3232 0.20591z"/>
  <path class="cls-1" d="m362.96 377.7s-0.17159-1.8017-0.48904-4.2898a15.615 15.615 0 0 0 0.48904 4.2898z"/>
  <path class="cls-1" d="m379.56 354.43c2.5739 0.0601 4.3413 0 4.3413 0a15.383 15.383 0 0 0-4.3413 0z"/>
  <path class="cls-2" d="m366.24 381.62c-3.0973 0.22307-6.6149-11.548 1.7159-20.763 8.3309-9.2146 20.377-6.9324 20.48-3.8351 0.10295 3.0973-7.0868 5.7484-12.14 11.351-5.0534 5.6025-6.9667 13.033-10.055 13.247z"/>
  <path class="cls-3" d="m370.6 371.84c-1.0296 0.0686-1.776-4.0324 1.287-7.4729 3.0629-3.4404 7.0525-3.1058 7.0439-2.0591-9e-3 1.0467-2.5739 2.2393-4.4958 4.47-1.9218 2.2307-2.8313 4.9848-3.8351 5.062z"/>
  <path class="cls-1" d="m412.61 271.02s-1.51-0.99524-3.6635-2.3337a15.117 15.117 0 0 0 3.6635 2.3337z"/>
  <path class="cls-1" d="m404.97 243.47c1.6387-1.939 2.7626-3.3461 2.7626-3.3461a15.315 15.315 0 0 0-2.7626 3.3461z"/>
  <path class="cls-2" d="m417.73 270.92c-1.7846 2.5739-13.144-2.1278-15.074-14.388-1.9304-12.26 7.4386-20.205 9.9095-18.335 2.4709 1.8704 0 9.1288 1.1754 16.584 1.1754 7.4557 5.7655 13.599 3.9895 16.138z"/>
  <path class="cls-3" d="m412.86 261.37c-0.59199 0.85796-4.2898-1.1583-5.0019-5.6969s2.0248-7.4386 2.8313-6.7779c0.80649 0.66064 0.13727 3.4319 0.64347 6.3146s2.1106 5.3108 1.5272 6.1602z"/>
  <path class="cls-1" d="m360.94 165.27s-1.7159 0.5491-4.1182 1.3813a15.323 15.323 0 0 0 4.1182-1.3813z"/>
  <path class="cls-1" d="m334.71 153.88c-0.47188-2.4881-0.85797-4.2898-0.85797-4.2898a15.358 15.358 0 0 0 0.85797 4.2898z"/>
  <path class="cls-2" d="m364.1 161.25c0.85797 2.9772-9.9267 8.8714-20.668 2.6597s-11.016-18.498-8.0134-19.244c3.0029-0.74643 7.104 5.7484 13.633 9.5234 6.5291 3.775 14.191 4.0839 15.049 7.0611z"/>
  <path class="cls-3" d="m353.59 159.02c0.29171 0.99524-3.5691 2.5739-7.5758 0.30029s-4.5043-6.2546-3.4748-6.4691 2.7283 2.0334 5.3022 3.4748c2.5739 1.4414 5.491 1.7074 5.7484 2.694z"/>
  <path class="cls-1" d="m282.81 384.92"/>
  <path class="cls-4" d="m357.45 293.32v0.42899a62.203 62.203 0 0 1-124.41 0v-0.42899a62.203 62.203 0 0 1 124.41 0z"/>
 </g>
</svg>
