<?xml version="1.0" encoding="UTF-8" standalone="no"?>
<svg
   xmlns:dc="http://purl.org/dc/elements/1.1/"
   xmlns:cc="http://creativecommons.org/ns#"
   xmlns:rdf="http://www.w3.org/1999/02/22-rdf-syntax-ns#"
   xmlns:svg="http://www.w3.org/2000/svg"
   xmlns="http://www.w3.org/2000/svg"
   height="435"
   width="435"
   xml:space="preserve"
   viewBox="0 0 64.38 64.379999"
   y="0px"
   x="0px"
   id="icon"
   version="1.1"><metadata
   id="metadata31"><rdf:RDF><cc:Work
       rdf:about=""><dc:format>image/svg+xml</dc:format><dc:type
         rdf:resource="http://purl.org/dc/dcmitype/StillImage" /><dc:title>LFS</dc:title></cc:Work></rdf:RDF></metadata><defs
   id="defs29">
</defs>
<title
   id="title4">LFS</title>






<path
   id="path14"
   d="M 10.047386,9.470489 V 57.77049 c 0,2 1.6,3.6 3.6,3.6 v 0 h 33.099999 c 2,0 3.6,-1.6 3.6,-3.6 v 0 c -19.579999,-27.58 -19.579999,-27.58 -36.699999,-51.9000007 -2,0 -3.6,1.6 -3.6,3.5999997 z"
   class="st4"
   style="display:inline;fill:#8bc34a;fill-opacity:1" /><g
   transform="translate(2.5576935,-1.757448)"
   id="g142"><path
     style="display:inline;fill:#8bc34a;fill-opacity:1"
     class="st0"
     d="m 36.453837,4.44 h -21.4 c 11.66,16.38 11.66,16.38 36.6,51.9 0.02486,-2.248373 0.04301,-4.530429 0.05557,-6.836045 0.05334,-9.788196 0.006,-20.001028 -0.05557,-29.863955 z"
     id="path6" /><path
     id="polygon8"
     style="display:inline;fill:#628e2f;fill-opacity:1"
     d="m 51.653837,24.74 v -5.1 l -7.5,-2.2 -5.6,1.9 z"
     class="st1" /><path
     style="display:inline;fill:#afd97d;fill-opacity:1"
     class="st2"
     d="m 51.653837,19.64 h -11.6 c -2,0 -3.6,-1.6 -3.6,-3.6 V 4.44 Z"
     id="path10" /></g><path
   id="path144"
   d="M 17.728285,6.8585918 51.66408,55.296792"
   style="fill:none;stroke:#ed447d;stroke-width:1.48;stroke-linecap:round;stroke-linejoin:miter;stroke-miterlimit:4;stroke-dasharray:none;stroke-opacity:1" /></svg>
